<svg xmlns="http://www.w3.org/2000/svg" width="50" height="80" viewBox="0 0 50 80">
  <g fill="none" fill-rule="evenodd">
    <path fill="#0F0E0C" d="M11.8128995 6.51628982L14.4224121 7.8535699C18.1499041 9.7637737 20.2920291 13.7945576 19.7895342 17.9527512L15.7949701 51.0081484C15.3817381 54.4276821 12.4798554 57 9.03544378 57L9.03544378 57C5.70216022 57 3 54.2978398 3 50.9645562L3 11.9027305C3 8.56000224 5.70981669 5.85018555 9.05254499 5.85018555 10.012466 5.85018555 10.9586212 6.07850332 11.8128995 6.51628982zM42.8601727.566552274L42.8601727.566552274C46.9171566 1.38106417 49.7021503 5.13022216 49.3101837 9.24955586L45.465973 49.6499042C45.0694374 53.8172551 41.5694692 57 37.383295 57L37.383295 57C33.6888317 57 30.6938774 54.0050458 30.6938774 50.3105825 30.6938774 50.0908277 30.7047062 49.8712064 30.7263244 49.6525176L35.0039562 6.38008276C35.3620398 2.75771604 38.5888324.111491764 42.2111991.469575404 42.4289996.491105747 42.6455925.523471471 42.8601727.566552274z"/>
    <circle cx="8" cy="69" r="8" fill="#0F0E0C"/>
    <circle cx="34" cy="72" r="8" fill="#0F0E0C"/>
  </g>
</svg>
