<svg xmlns="http://www.w3.org/2000/svg" width="128" height="128" viewBox="0 0 20 20">
  <path fill="#F5E9CC" fill-rule="evenodd" stroke="#0F0E0C" stroke-linecap="round" stroke-linejoin="round" stroke-width=".75" d="M7.87847109,16.6115923 L14.2794061,16.6115923 C15.2270681,15.9658549 15.7008992,14.4996776 15.7008992,12.2130606 C15.7008992,11.637121 15.7008992,10.3855372 15.7008992,8.45830929 C15.5840153,8.1777612 15.3099395,8.03748715 14.8786717,8.03748715 C14.447404,8.03748715 14.1733282,8.1777612 14.0564443,8.45830929 L14.0564443,10.0731179 L13.6120434,10.0731179 L13.6120434,7.60503563 C13.442252,7.27322518 13.1385256,7.10731995 12.7008643,7.10731995 C12.2632029,7.10731995 11.9594766,7.27322518 11.7896851,7.60503563 L11.7896851,9.66772566 L11.370836,9.66772566 L11.370836,7.02480999 C11.2213187,6.71279092 10.9187822,6.55678138 10.4632264,6.55678138 C10.0076707,6.55678138 9.7051342,6.71279092 9.55561686,7.02480999 L9.55561686,9.66772566 L9.12117063,9.66772566 L9.12117063,3.53938379 C8.97940459,3.1797946 8.67458595,3 8.20671473,3 C7.7388435,3 7.43402487,3.1797946 7.29225882,3.53938379 L7.29225882,10.8641791 C6.49382901,9.57299431 5.9158488,8.84712717 5.5583182,8.68657772 C4.68206628,8.29309597 3.6223017,9.40578151 4.13365531,10.2119526 C5.60985045,12.5392382 6.85812237,14.6724514 7.87847109,16.6115923 Z"/>
</svg>
